<?xml version="1.0" encoding="iso-8859-1"?>
<!-- Uploaded to: SVG Repo, www.svgrepo.com, Generator: SVG Repo Mixer Tools -->
<svg version="1.1" id="Layer_1" xmlns="http://www.w3.org/2000/svg" xmlns:xlink="http://www.w3.org/1999/xlink" 
	 viewBox="0 0 512 512" xml:space="preserve">
<g>
	<rect x="59.077" y="22.505" style="fill:#95341D;" width="16.879" height="106.901"/>
	<rect x="436.044" y="22.505" style="fill:#95341D;" width="16.879" height="106.901"/>
</g>
<polygon style="fill:#E26142;" points="512,118.154 512,512 478.242,512 421.978,320.703 478.242,118.154 "/>
<path style="fill:#F1866D;" d="M478.242,118.154V512H0V118.154H478.242z"/>
<polygon style="fill:#F5AC51;" points="512,0 512,33.758 478.242,33.758 455.736,16.879 478.242,0 "/>
<path style="fill:#FFD159;" d="M478.242,0v33.758H16.879C7.562,33.758,0,26.208,0,16.879C0,7.562,7.562,0,16.879,0H478.242z"/>
<path style="fill:#95341D;" d="M188.484,219.429L256,466.989c13.605,0,24.959-9.666,27.569-22.505h160.914V219.429H188.484z"/>
<path style="fill:#AB5D4A;" d="M101.275,219.429H67.516v225.055h160.914c2.611,12.839,13.965,22.505,27.569,22.505v-41.343
	L101.275,219.429z"/>
<polygon style="fill:#FFCDC1;" points="376.967,185.67 343.209,303.824 376.967,410.725 410.725,410.725 410.725,185.67 "/>
<path style="fill:#FFEEEA;" d="M284.132,185.67c-11.714,0-22.067,6.054-28.132,15.169l-33.758,118.03L256,425.646
	c6.088-8.98,16.53-14.921,28.132-14.921h92.835V185.67H284.132z"/>
<path style="fill:#FFFFFF;" d="M227.868,185.67H101.275v225.055h126.593c11.602,0,22.044,5.941,28.132,14.921V200.839
	C249.935,191.724,239.582,185.67,227.868,185.67z"/>
</svg>